<svg width="32" height="32" viewBox="0 0 32 32" fill="none" xmlns="http://www.w3.org/2000/svg">
<g clip-path="url(#clip0_358_120)">
<path d="M0 14.8398C0 12.7958 0.400802 10.8519 1.2024 9.00818C2.78557 5.28073 5.44088 2.62541 9.16834 1.04225C11.012 0.240645 12.9559 -0.160156 15 -0.160156C17.0441 -0.160156 18.988 0.240645 20.8317 1.04225C24.519 2.60537 27.1743 5.26069 28.7976 9.00818C29.5992 10.912 30 12.8559 30 14.8398C30 16.8238 29.5992 18.7677 28.7976 20.6715C27.1743 24.439 24.519 27.1144 20.8317 28.6976C18.988 29.4992 17.0441 29.9 15 29.9C12.9559 29.9 11.012 29.4992 9.16834 28.6976C5.44088 27.0944 2.78557 24.419 1.2024 20.6715C0.400802 18.8278 0 16.8839 0 14.8398ZM2.34469 14.8398C2.34469 17.6655 3.18637 20.1905 4.86974 22.415C6.53307 24.5994 8.70741 26.1525 11.3928 27.0743V24.6695C11.3928 23.4671 11.7936 22.5954 12.5952 22.0543C12.1944 22.0342 11.7234 21.9641 11.1824 21.8439C10.1603 21.6635 9.28858 21.3428 8.56713 20.8819C6.74349 19.7797 5.83166 17.7857 5.83166 14.9C5.83166 13.397 6.33267 12.1144 7.33467 11.0523C6.87375 9.8699 6.92385 8.58734 7.48497 7.20457H8.08617C8.28657 7.20457 8.53707 7.25467 8.83768 7.35487C9.61924 7.59535 10.491 8.03624 11.4529 8.67752C12.6754 8.35688 13.8778 8.19656 15.0601 8.19656C16.2425 8.19656 17.4549 8.35688 18.6974 8.67752C19.479 8.15648 20.2104 7.75568 20.8918 7.47511C21.5331 7.23463 21.994 7.13443 22.2745 7.17451L22.6353 7.20457C23.1764 8.58734 23.2265 9.8699 22.7856 11.0523C23.7876 12.1144 24.2886 13.397 24.2886 14.9C24.2886 17.1445 23.7375 18.8378 22.6353 19.9801C22.0341 20.6214 21.2425 21.1224 20.2605 21.4831C19.4389 21.7837 18.5271 21.9741 17.525 22.0543C18.3467 22.6354 18.7575 23.5072 18.7575 24.6695V27.0743C21.3427 26.1525 23.477 24.5793 25.1603 22.3549C26.8036 20.1505 27.6253 17.6455 27.6253 14.8398C27.6253 13.1364 27.2946 11.4932 26.6333 9.90998C25.992 8.38694 25.0902 7.04425 23.9279 5.88193C22.8056 4.75968 21.4629 3.8679 19.8998 3.20658C18.2966 2.52521 16.6633 2.18453 15 2.18453C13.3567 2.18453 11.7134 2.52521 10.0701 3.20658C8.56713 3.84786 7.22445 4.73964 6.04208 5.88193C4.91984 7.04425 4.01804 8.38694 3.33667 9.90998C2.67535 11.4932 2.34469 13.1364 2.34469 14.8398Z" fill="white"/>
</g>
<defs>
<clipPath id="clip0_358_120">
<rect width="32" height="32" fill="white"/>
</clipPath>
</defs>
</svg>
